<?xml version="1.0" standalone="no"?>
<!DOCTYPE svg PUBLIC "-//W3C//DTD SVG 20010904//EN"
 "http://www.w3.org/TR/2001/REC-SVG-20010904/DTD/svg10.dtd">
<svg version="1.0" xmlns="http://www.w3.org/2000/svg"
 width="700.000000pt" height="700.000000pt" viewBox="0 0 700.000000 700.000000"
 preserveAspectRatio="xMidYMid meet">
<metadata>
Created by potrace 1.14, written by Peter Selinger 2001-2017
</metadata>
<g transform="translate(0.000000,700.000000) scale(0.100000,-0.100000)"
fill="#000000" stroke="none">
<path d="M2920 6670 c-316 -181 -583 -334 -594 -341 -10 -6 -35 -20 -54 -31
-20 -11 -128 -73 -241 -138 -197 -113 -228 -131 -331 -188 -25 -14 -78 -45
-118 -69 -41 -24 -75 -43 -77 -43 -2 0 -28 -14 -57 -31 -66 -40 -1017 -583
-1078 -617 -25 -14 -70 -39 -100 -57 -30 -18 -102 -60 -160 -93 l-105 -60 0
-1002 0 -1001 105 -61 c58 -33 125 -72 150 -86 25 -14 86 -48 135 -77 50 -29
107 -62 128 -74 21 -12 179 -102 350 -200 172 -98 333 -189 359 -204 25 -14
64 -37 87 -51 22 -14 42 -26 45 -26 2 0 55 -30 117 -66 63 -37 143 -82 179
-102 36 -19 77 -43 92 -54 14 -10 29 -18 32 -18 4 0 36 -18 72 -40 36 -22 67
-40 69 -40 2 0 39 -21 82 -47 43 -25 101 -58 128 -73 28 -15 111 -62 185 -105
168 -97 123 -71 585 -335 215 -123 404 -231 420 -241 17 -11 36 -22 44 -26 8
-3 58 -31 110 -61 53 -30 114 -65 136 -77 22 -13 80 -46 128 -74 49 -28 91
-51 93 -51 3 0 25 -13 49 -30 24 -16 46 -30 49 -30 2 0 44 -23 93 -51 48 -28
126 -73 173 -99 141 -79 157 -88 199 -114 22 -15 43 -26 45 -26 2 0 39 -20 80
-45 42 -25 79 -45 82 -45 3 0 18 -8 32 -19 15 -10 56 -34 92 -54 36 -20 166
-94 290 -165 l225 -129 5 1000 5 999 725 415 c399 228 748 427 775 443 28 15
93 53 145 83 l95 55 3 1006 c1 704 -1 1006 -9 1006 -5 0 -51 24 -102 54 -51
30 -109 63 -129 75 -65 36 -107 60 -181 103 -40 22 -101 58 -137 78 -36 20
-141 80 -233 133 -93 53 -170 97 -173 97 -3 0 -73 42 -129 78 -11 6 -27 15
-35 19 -8 4 -53 29 -100 56 -47 27 -103 59 -125 72 -22 12 -56 31 -75 42 -19
11 -62 35 -95 53 -33 19 -71 41 -85 50 -14 10 -50 31 -80 47 -30 16 -152 85
-270 153 -118 68 -244 140 -280 160 -71 39 -466 265 -730 418 -91 52 -190 108
-220 125 -30 17 -84 48 -119 69 -34 21 -65 38 -68 38 -3 0 -31 16 -63 35 -32
19 -59 35 -61 34 -2 0 -263 -148 -579 -329z m746 -1765 c91 -52 168 -95 171
-95 2 0 24 -13 48 -30 24 -16 46 -30 48 -30 3 0 112 -61 243 -136 132 -76 259
-148 283 -162 25 -14 67 -38 93 -53 27 -16 51 -29 53 -29 3 0 29 -16 59 -35
30 -19 57 -35 60 -35 3 0 33 -17 68 -37 91 -54 98 -59 148 -86 25 -13 74 -41
110 -62 36 -21 92 -52 125 -71 33 -18 61 -36 62 -41 2 -5 -108 -72 -244 -150
-137 -78 -446 -255 -688 -393 -242 -139 -458 -262 -480 -275 -83 -47 -113 -64
-217 -124 l-107 -61 -33 18 c-18 11 -303 174 -633 362 -330 189 -618 353 -640
366 -22 12 -80 45 -130 74 -49 29 -108 63 -130 75 -130 72 -175 99 -175 105 0
3 17 16 38 27 72 41 110 62 452 258 190 109 361 207 380 218 19 10 64 36 100
57 36 20 85 49 110 62 25 14 153 87 285 163 132 75 260 148 285 162 25 14 54
32 65 39 11 8 21 14 23 14 1 0 77 -43 168 -95z"/>
</g>
</svg>
