<svg>

  <symbol id="arrow-down" width="10" height="6" viewBox="0 0 10 6" fill="none" xmlns="http://www.w3.org/2000/svg">
    <path d="M9 1L5 5L1 1" stroke="currentColor" stroke-miterlimit="10" stroke-linecap="round" stroke-linejoin="round" />
  </symbol>

  <symbol id="stars" width="16" height="16" viewBox="0 0 16 16" fill="none" xmlns="http://www.w3.org/2000/svg">
    <path d="M13 6C12.8011 6 12.6103 5.92098 12.4697 5.78033C12.329 5.63968 12.25 5.44891 12.25 5.25C12.25 4.85218 12.092 4.47064 11.8107 4.18934C11.5294 3.90804 11.1478 3.75 10.75 3.75C10.5511 3.75 10.3603 3.67098 10.2197 3.53033C10.079 3.38968 10 3.19891 10 3C10 2.80109 10.079 2.61032 10.2197 2.46967C10.3603 2.32902 10.5511 2.25 10.75 2.25C11.1478 2.25 11.5294 2.09196 11.8107 1.81066C12.092 1.52936 12.25 1.14782 12.25 0.75C12.25 0.551088 12.329 0.360322 12.4697 0.21967C12.6103 0.0790176 12.8011 0 13 0C13.1989 0 13.3897 0.0790176 13.5303 0.21967C13.671 0.360322 13.75 0.551088 13.75 0.75C13.75 1.14782 13.908 1.52936 14.1893 1.81066C14.4706 2.09196 14.8522 2.25 15.25 2.25C15.4489 2.25 15.6397 2.32902 15.7803 2.46967C15.921 2.61032 16 2.80109 16 3C16 3.19891 15.921 3.38968 15.7803 3.53033C15.6397 3.67098 15.4489 3.75 15.25 3.75C14.8522 3.75 14.4706 3.90804 14.1893 4.18934C13.908 4.47064 13.75 4.85218 13.75 5.25C13.75 5.44891 13.671 5.63968 13.5303 5.78033C13.3897 5.92098 13.1989 6 13 6Z" fill="#722ED1"/>
    <path d="M6 16C5.73478 16 5.48043 15.8946 5.29289 15.7071C5.10536 15.5196 5 15.2652 5 15C5 13.9391 4.57857 12.9217 3.82843 12.1716C3.07828 11.4214 2.06087 11 1 11C0.734784 11 0.48043 10.8946 0.292893 10.7071C0.105357 10.5196 0 10.2652 0 10C0 9.73478 0.105357 9.48043 0.292893 9.29289C0.48043 9.10536 0.734784 9 1 9C2.06087 9 3.07828 8.57857 3.82843 7.82843C4.57857 7.07828 5 6.06087 5 5C5 4.73478 5.10536 4.48043 5.29289 4.29289C5.48043 4.10536 5.73478 4 6 4C6.26522 4 6.51957 4.10536 6.70711 4.29289C6.89464 4.48043 7 4.73478 7 5C7 6.06087 7.42143 7.07828 8.17157 7.82843C8.92172 8.57857 9.93913 9 11 9C11.2652 9 11.5196 9.10536 11.7071 9.29289C11.8946 9.48043 12 9.73478 12 10C12 10.2652 11.8946 10.5196 11.7071 10.7071C11.5196 10.8946 11.2652 11 11 11C9.93913 11 8.92172 11.4214 8.17157 12.1716C7.42143 12.9217 7 13.9391 7 15C7 15.2652 6.89464 15.5196 6.70711 15.7071C6.51957 15.8946 6.26522 16 6 16Z" fill="#722ED1"/>
  </symbol>

  <symbol id="eye" width="27" height="18" viewBox="0 0 27 18" fill="none" xmlns="http://www.w3.org/2000/svg">
    <path d="M26.232 8.34696C25.0487 5.97793 23.2331 3.98243 20.986 2.58128C18.739 1.18013 16.1481 0.427949 13.5 0.407959C10.852 0.428174 8.26124 1.18045 6.01421 2.58158C3.76719 3.9827 1.95151 5.97807 0.768028 8.34696C0.665726 8.54943 0.612427 8.77311 0.612427 8.99996C0.612427 9.22681 0.665726 9.45049 0.768028 9.65296C1.95133 12.022 3.76696 14.0175 6.01403 15.4186C8.26109 16.8198 10.852 17.572 13.5 17.592C16.148 17.5717 18.7388 16.8195 20.9858 15.4183C23.2329 14.0172 25.0485 12.0218 26.232 9.65296C26.3343 9.45049 26.3876 9.22681 26.3876 8.99996C26.3876 8.77311 26.3343 8.54943 26.232 8.34696ZM13.5 15.447C12.2255 15.447 10.9796 15.069 9.91993 14.3609C8.86022 13.6529 8.03428 12.6465 7.54655 11.469C7.05882 10.2915 6.9312 8.99581 7.17985 7.7458C7.42849 6.49578 8.04222 5.34757 8.94343 4.44636C9.84464 3.54515 10.9929 2.93142 12.2429 2.68278C13.4929 2.43414 14.7886 2.56175 15.966 3.04948C17.1435 3.53721 18.1499 4.36315 18.858 5.42286C19.5661 6.48257 19.944 7.72846 19.944 9.00296C19.9432 10.7115 19.264 12.3498 18.0556 13.5576C16.8472 14.7655 15.2086 15.444 13.5 15.444V15.447ZM13.5 4.70696C13.1164 4.71241 12.7353 4.76959 12.367 4.87696C12.6714 5.28934 12.8177 5.79722 12.7794 6.30831C12.7411 6.8194 12.5207 7.29979 12.1583 7.66219C11.7959 8.0246 11.3155 8.24498 10.8044 8.28329C10.2933 8.3216 9.78541 8.17529 9.37303 7.87096C9.13812 8.73617 9.18045 9.65326 9.49405 10.4932C9.80765 11.3331 10.3767 12.0535 11.1212 12.553C11.8657 13.0525 12.7481 13.306 13.6441 13.2778C14.5402 13.2496 15.4049 12.9411 16.1165 12.3958C16.8281 11.8504 17.3507 11.0956 17.6109 10.2377C17.871 9.3797 17.8556 8.46176 17.5667 7.61304C17.2779 6.76431 16.7302 6.02753 16.0006 5.5064C15.2711 4.98527 14.3966 4.70602 13.5 4.70796V4.70696Z" fill="#722ED1"/>
  </symbol>

  <symbol id="bar" width="41" height="40" viewBox="0 0 41 40" fill="none" xmlns="http://www.w3.org/2000/svg">
    <path d="M20.5 40C31.5457 40 40.5 31.0457 40.5 20C40.5 8.9543 31.5457 0 20.5 0C9.4543 0 0.5 8.9543 0.5 20C0.5 31.0457 9.4543 40 20.5 40Z" fill="#E6F7FF" />
    <path d="M22.124 20.541H18.876C18.8049 20.541 18.7346 20.555 18.6689 20.5822C18.6033 20.6094 18.5437 20.6492 18.4934 20.6995C18.4432 20.7497 18.4033 20.8093 18.3761 20.875C18.349 20.9406 18.335 21.011 18.335 21.082V28.118C18.335 28.1891 18.349 28.2594 18.3761 28.325C18.4033 28.3907 18.4432 28.4503 18.4934 28.5006C18.5437 28.5508 18.6033 28.5906 18.6689 28.6178C18.7346 28.645 18.8049 28.659 18.876 28.659H22.124C22.2674 28.659 22.405 28.602 22.5065 28.5006C22.608 28.3991 22.665 28.2615 22.665 28.118V21.082C22.665 20.9385 22.608 20.8009 22.5065 20.6995C22.405 20.598 22.2674 20.541 22.124 20.541Z" fill="#1890FF" />
    <path d="M15.629 23.789H12.381C12.2375 23.789 12.0999 23.846 11.9984 23.9475C11.897 24.0489 11.84 24.1865 11.84 24.33V28.119C11.84 28.2625 11.897 28.4001 11.9984 28.5015C12.0999 28.603 12.2375 28.66 12.381 28.66H15.629C15.7724 28.66 15.9101 28.603 16.0115 28.5015C16.113 28.4001 16.17 28.2625 16.17 28.119V24.33C16.17 24.1865 16.113 24.0489 16.0115 23.9475C15.9101 23.846 15.7724 23.789 15.629 23.789Z" fill="#1890FF" />
    <path d="M28.619 17.294H25.371C25.2999 17.294 25.2296 17.308 25.1639 17.3352C25.0983 17.3624 25.0386 17.4022 24.9884 17.4525C24.9382 17.5027 24.8983 17.5623 24.8711 17.628C24.8439 17.6936 24.83 17.764 24.83 17.835V28.119C24.83 28.1901 24.8439 28.2604 24.8711 28.326C24.8983 28.3917 24.9382 28.4513 24.9884 28.5016C25.0386 28.5518 25.0983 28.5916 25.1639 28.6188C25.2296 28.646 25.2999 28.66 25.371 28.66H28.619C28.7624 28.66 28.9 28.603 29.0015 28.5016C29.103 28.4001 29.16 28.2625 29.16 28.119V17.835C29.16 17.6915 29.103 17.5539 29.0015 17.4525C28.9 17.351 28.7624 17.294 28.619 17.294Z" fill="#1890FF" />
    <path d="M20.5 17.84C20.5711 17.8401 20.6416 17.826 20.7073 17.7988C20.7731 17.7715 20.8327 17.7315 20.883 17.681L25.372 13.188V15.67H26.455V11.881C26.455 11.8098 26.4409 11.7393 26.4136 11.6735C26.3863 11.6078 26.3462 11.548 26.2958 11.4978C26.2453 11.4475 26.1855 11.4077 26.1196 11.3806C26.0537 11.3536 25.9832 11.3398 25.912 11.34H22.124V12.423H24.606L20.5 16.529L18.177 14.205C18.0755 14.1036 17.9379 14.0466 17.7945 14.0466C17.651 14.0466 17.5134 14.1036 17.412 14.205L14.705 16.911L15.47 17.676L17.794 15.353L20.118 17.677C20.1677 17.7281 20.2271 17.7687 20.2927 17.7967C20.3582 17.8247 20.4287 17.8394 20.5 17.84Z" fill="#1890FF" />
  </symbol>

  <symbol id="dev" width="41" height="40" viewBox="0 0 41 40" fill="none" xmlns="http://www.w3.org/2000/svg">
    <path d="M20.5 40C31.5457 40 40.5 31.0457 40.5 20C40.5 8.9543 31.5457 0 20.5 0C9.4543 0 0.5 8.9543 0.5 20C0.5 31.0457 9.4543 40 20.5 40Z" fill="#FFF1F0" />
    <path d="M15.485 19.438V12.471H24.537V19.438L27.444 17.823L25.544 16.708V11.965C25.544 11.8324 25.4913 11.7052 25.3976 11.6115C25.3038 11.5177 25.1766 11.465 25.044 11.465H14.982C14.8494 11.465 14.7222 11.5177 14.6285 11.6115C14.5347 11.7052 14.482 11.8324 14.482 11.965V16.706L12.562 17.815L15.485 19.438Z" fill="#F5222D" />
    <path d="M20.255 22.9671C20.1804 23.0087 20.0964 23.0306 20.011 23.0306C19.9255 23.0306 19.8415 23.0087 19.767 22.9671L11.965 18.6331V27.0531C11.965 27.1857 12.0176 27.3128 12.1114 27.4066C12.2052 27.5004 12.3324 27.5531 12.465 27.5531H27.554C27.6866 27.5531 27.8138 27.5004 27.9075 27.4066C28.0013 27.3128 28.054 27.1857 28.054 27.0531V18.6331L20.255 22.9671Z" fill="#F5222D" />
    <path d="M18.5019 18.713L16.6379 16.849C16.5909 16.8025 16.5536 16.7472 16.5281 16.6862C16.5026 16.6251 16.4895 16.5597 16.4895 16.4935C16.4895 16.4274 16.5026 16.362 16.5281 16.3009C16.5536 16.2399 16.5909 16.1845 16.6379 16.138L18.5019 14.274L19.2129 14.985L17.7049 16.494L19.2139 18.003L18.5019 18.713Z" fill="#F5222D" />
    <path d="M21.5219 18.713L20.8109 18.002L22.3199 16.493L20.8079 14.988L21.5189 14.277L23.3829 16.138C23.4299 16.1845 23.4672 16.2399 23.4927 16.3009C23.5181 16.3619 23.5313 16.4274 23.5313 16.4935C23.5313 16.5597 23.5181 16.6251 23.4927 16.6862C23.4672 16.7472 23.4299 16.8025 23.3829 16.849L21.5219 18.713Z" fill="#F5222D" />
  </symbol>

  <symbol id="timeline" width="41" height="40" viewBox="0 0 41 40" fill="none" xmlns="http://www.w3.org/2000/svg">
    <path d="M20.5 40C31.5457 40 40.5 31.0457 40.5 20C40.5 8.9543 31.5457 0 20.5 0C9.4543 0 0.5 8.9543 0.5 20C0.5 31.0457 9.4543 40 20.5 40Z" fill="#F6FFED" />
    <path d="M21.0131 12H19.9861V19.7H18.4451V20.732H19.9861V28.432H21.0131V25.355H22.5541V24.328H21.0131V16.109H22.5541V15.082H21.0131V12Z" fill="#52C41A" />
    <path d="M27.5 13.219H24.5C23.9477 13.219 23.5 13.6667 23.5 14.219V17.219C23.5 17.7713 23.9477 18.219 24.5 18.219H27.5C28.0523 18.219 28.5 17.7713 28.5 17.219V14.219C28.5 13.6667 28.0523 13.219 27.5 13.219Z" fill="#52C41A" />
    <path d="M27.5 22.219H24.5C23.9477 22.219 23.5 22.6667 23.5 23.219V26.219C23.5 26.7713 23.9477 27.219 24.5 27.219H27.5C28.0523 27.219 28.5 26.7713 28.5 26.219V23.219C28.5 22.6667 28.0523 22.219 27.5 22.219Z" fill="#52C41A" />
    <path d="M16.5 17.219H13.5C12.9477 17.219 12.5 17.6667 12.5 18.219V22.219C12.5 22.7713 12.9477 23.219 13.5 23.219H16.5C17.0523 23.219 17.5 22.7713 17.5 22.219V18.219C17.5 17.6667 17.0523 17.219 16.5 17.219Z" fill="#52C41A" />
  </symbol>

  <symbol id="electronic" width="25" height="25" viewBox="0 0 25 25" fill="none" xmlns="http://www.w3.org/2000/svg">
    <path d="M8.50001 7.598V5.828C9.16722 5.5921 9.72956 5.12793 10.0876 4.51752C10.4457 3.90711 10.5765 3.18976 10.4568 2.49227C10.3371 1.79477 9.97473 1.16204 9.43367 0.705895C8.8926 0.249753 8.20769 -0.000427246 7.50001 -0.000427246C6.79232 -0.000427246 6.10741 0.249753 5.56635 0.705895C5.02528 1.16204 4.66288 1.79477 4.54321 2.49227C4.42354 3.18976 4.5543 3.90711 4.91237 4.51752C5.27045 5.12793 5.83279 5.5921 6.50001 5.828V8.012C6.50006 8.27719 6.60546 8.53151 6.79301 8.719L9.50001 11.426V23.012C9.50001 23.2772 9.60536 23.5316 9.7929 23.7191C9.98044 23.9066 10.2348 24.012 10.5 24.012C10.7652 24.012 11.0196 23.9066 11.2071 23.7191C11.3946 23.5316 11.5 23.2772 11.5 23.012V11.012C11.4999 10.7468 11.3946 10.4925 11.207 10.305L8.50001 7.598Z" fill="#722ED1"/>
    <path d="M4.50001 16.598V14.828C5.16722 14.5921 5.72956 14.1279 6.08764 13.5175C6.44571 12.9071 6.57647 12.1898 6.4568 11.4923C6.33713 10.7948 5.97474 10.162 5.43367 9.70589C4.8926 9.24975 4.20769 8.99957 3.50001 8.99957C2.79232 8.99957 2.10741 9.24975 1.56635 9.70589C1.02528 10.162 0.662882 10.7948 0.543211 11.4923C0.423539 12.1898 0.554298 12.9071 0.912375 13.5175C1.27045 14.1279 1.83279 14.5921 2.50001 14.828V17.012C2.50006 17.2772 2.60546 17.5315 2.79301 17.719L5.50001 20.426V23.012C5.50001 23.2772 5.60536 23.5316 5.7929 23.7191C5.98044 23.9066 6.23479 24.012 6.50001 24.012C6.76522 24.012 7.01958 23.9066 7.20711 23.7191C7.39465 23.5316 7.50001 23.2772 7.50001 23.012V20.012C7.49995 19.7468 7.39456 19.4925 7.20701 19.305L4.50001 16.598Z" fill="#722ED1"/>
    <path d="M18.5 8.012V5.828C19.1672 5.5921 19.7296 5.12793 20.0876 4.51752C20.4457 3.90711 20.5765 3.18976 20.4568 2.49227C20.3371 1.79477 19.9747 1.16204 19.4337 0.705895C18.8926 0.249753 18.2077 -0.000427246 17.5 -0.000427246C16.7923 -0.000427246 16.1074 0.249753 15.5663 0.705895C15.0253 1.16204 14.6629 1.79477 14.5432 2.49227C14.4235 3.18976 14.5543 3.90711 14.9124 4.51752C15.2704 5.12793 15.8328 5.5921 16.5 5.828V7.598L13.793 10.305C13.6055 10.4925 13.5001 10.7468 13.5 11.012V23.012C13.5 23.2772 13.6054 23.5316 13.7929 23.7191C13.9804 23.9066 14.2348 24.012 14.5 24.012C14.7652 24.012 15.0196 23.9066 15.2071 23.7191C15.3946 23.5316 15.5 23.2772 15.5 23.012V11.426L18.207 8.719C18.3946 8.53151 18.4999 8.27719 18.5 8.012Z" fill="#722ED1"/>
    <path d="M24.5 12.012C24.5023 11.4615 24.353 10.9209 24.0686 10.4496C23.7842 9.97824 23.3755 9.59424 22.8874 9.33965C22.3993 9.08506 21.8505 8.96968 21.3012 9.00617C20.7519 9.04265 20.2232 9.22959 19.7731 9.5465C19.3229 9.86341 18.9686 10.2981 18.749 10.8029C18.5294 11.3077 18.453 11.8633 18.528 12.4086C18.6031 12.954 18.8268 13.4682 19.1746 13.895C19.5224 14.3217 19.981 14.6445 20.5 14.828V16.598L17.793 19.305C17.6054 19.4925 17.5001 19.7468 17.5 20.012V23.012C17.5 23.2772 17.6054 23.5316 17.7929 23.7191C17.9804 23.9066 18.2348 24.012 18.5 24.012C18.7652 24.012 19.0196 23.9066 19.2071 23.7191C19.3946 23.5316 19.5 23.2772 19.5 23.012V20.426L22.207 17.719C22.3946 17.5315 22.4999 17.2772 22.5 17.012V14.828C23.0829 14.6219 23.5879 14.2408 23.9459 13.7367C24.3039 13.2326 24.4974 12.6303 24.5 12.012Z" fill="#722ED1"/>
  </symbol>

  <symbol id="compass" width="24" height="24" viewBox="0 0 24 24" fill="none" xmlns="http://www.w3.org/2000/svg">
    <path d="M12.387 2.4V0H10.842V2.4C9.90207 2.59181 9.06683 3.12581 8.49824 3.89845C7.92965 4.6711 7.6682 5.62734 7.7646 6.5818C7.86099 7.53626 8.30835 8.42092 9.01995 9.06427C9.73155 9.70762 10.6567 10.0638 11.616 10.0638C12.5753 10.0638 13.5005 9.70762 14.2121 9.06427C14.9237 8.42092 15.371 7.53626 15.4674 6.5818C15.5638 5.62734 15.3024 4.6711 14.7338 3.89845C14.1652 3.12581 13.3299 2.59181 12.39 2.4H12.387Z" fill="#722ED1"/>
    <path d="M19.8 17.032H21.681V15.484H19.021L15.974 9.397C15.3365 10.2632 14.4564 10.921 13.445 11.287L15.545 15.487H12.387V13.935H10.839V15.483H7.682L9.782 11.283C8.77053 10.9172 7.89037 10.2594 7.253 9.393L4.2 15.484H1.548V17.032H3.429L0 23.881C0.878326 24.1006 1.80527 24.014 2.62777 23.6357C3.45028 23.2573 4.11917 22.6098 4.524 21.8L6.908 17.033H10.839V18.581H12.387V17.032H16.318L18.7 21.8C19.1048 22.6098 19.7737 23.2573 20.5962 23.6357C21.4187 24.014 22.3457 24.1006 23.224 23.881L19.8 17.032Z" fill="#722ED1"/>
  </symbol>

  



</svg>