<svg>

  <symbol id="arrow-down" width="10" height="6" viewBox="0 0 10 6" fill="none" xmlns="http://www.w3.org/2000/svg">
    <path d="M9 1L5 5L1 1" stroke="currentColor" stroke-miterlimit="10" stroke-linecap="round" stroke-linejoin="round" />
  </symbol>

  <symbol id="stars" width="16" height="16" viewBox="0 0 16 16" fill="none" xmlns="http://www.w3.org/2000/svg">
    <path d="M13 6C12.8011 6 12.6103 5.92098 12.4697 5.78033C12.329 5.63968 12.25 5.44891 12.25 5.25C12.25 4.85218 12.092 4.47064 11.8107 4.18934C11.5294 3.90804 11.1478 3.75 10.75 3.75C10.5511 3.75 10.3603 3.67098 10.2197 3.53033C10.079 3.38968 10 3.19891 10 3C10 2.80109 10.079 2.61032 10.2197 2.46967C10.3603 2.32902 10.5511 2.25 10.75 2.25C11.1478 2.25 11.5294 2.09196 11.8107 1.81066C12.092 1.52936 12.25 1.14782 12.25 0.75C12.25 0.551088 12.329 0.360322 12.4697 0.21967C12.6103 0.0790176 12.8011 0 13 0C13.1989 0 13.3897 0.0790176 13.5303 0.21967C13.671 0.360322 13.75 0.551088 13.75 0.75C13.75 1.14782 13.908 1.52936 14.1893 1.81066C14.4706 2.09196 14.8522 2.25 15.25 2.25C15.4489 2.25 15.6397 2.32902 15.7803 2.46967C15.921 2.61032 16 2.80109 16 3C16 3.19891 15.921 3.38968 15.7803 3.53033C15.6397 3.67098 15.4489 3.75 15.25 3.75C14.8522 3.75 14.4706 3.90804 14.1893 4.18934C13.908 4.47064 13.75 4.85218 13.75 5.25C13.75 5.44891 13.671 5.63968 13.5303 5.78033C13.3897 5.92098 13.1989 6 13 6Z" fill="#722ED1"/>
    <path d="M6 16C5.73478 16 5.48043 15.8946 5.29289 15.7071C5.10536 15.5196 5 15.2652 5 15C5 13.9391 4.57857 12.9217 3.82843 12.1716C3.07828 11.4214 2.06087 11 1 11C0.734784 11 0.48043 10.8946 0.292893 10.7071C0.105357 10.5196 0 10.2652 0 10C0 9.73478 0.105357 9.48043 0.292893 9.29289C0.48043 9.10536 0.734784 9 1 9C2.06087 9 3.07828 8.57857 3.82843 7.82843C4.57857 7.07828 5 6.06087 5 5C5 4.73478 5.10536 4.48043 5.29289 4.29289C5.48043 4.10536 5.73478 4 6 4C6.26522 4 6.51957 4.10536 6.70711 4.29289C6.89464 4.48043 7 4.73478 7 5C7 6.06087 7.42143 7.07828 8.17157 7.82843C8.92172 8.57857 9.93913 9 11 9C11.2652 9 11.5196 9.10536 11.7071 9.29289C11.8946 9.48043 12 9.73478 12 10C12 10.2652 11.8946 10.5196 11.7071 10.7071C11.5196 10.8946 11.2652 11 11 11C9.93913 11 8.92172 11.4214 8.17157 12.1716C7.42143 12.9217 7 13.9391 7 15C7 15.2652 6.89464 15.5196 6.70711 15.7071C6.51957 15.8946 6.26522 16 6 16Z" fill="#722ED1"/>
  </symbol>

  <symbol id="eye" width="27" height="18" viewBox="0 0 27 18" fill="none" xmlns="http://www.w3.org/2000/svg">
    <path d="M26.232 8.34696C25.0487 5.97793 23.2331 3.98243 20.986 2.58128C18.739 1.18013 16.1481 0.427949 13.5 0.407959C10.852 0.428174 8.26124 1.18045 6.01421 2.58158C3.76719 3.9827 1.95151 5.97807 0.768028 8.34696C0.665726 8.54943 0.612427 8.77311 0.612427 8.99996C0.612427 9.22681 0.665726 9.45049 0.768028 9.65296C1.95133 12.022 3.76696 14.0175 6.01403 15.4186C8.26109 16.8198 10.852 17.572 13.5 17.592C16.148 17.5717 18.7388 16.8195 20.9858 15.4183C23.2329 14.0172 25.0485 12.0218 26.232 9.65296C26.3343 9.45049 26.3876 9.22681 26.3876 8.99996C26.3876 8.77311 26.3343 8.54943 26.232 8.34696ZM13.5 15.447C12.2255 15.447 10.9796 15.069 9.91993 14.3609C8.86022 13.6529 8.03428 12.6465 7.54655 11.469C7.05882 10.2915 6.9312 8.99581 7.17985 7.7458C7.42849 6.49578 8.04222 5.34757 8.94343 4.44636C9.84464 3.54515 10.9929 2.93142 12.2429 2.68278C13.4929 2.43414 14.7886 2.56175 15.966 3.04948C17.1435 3.53721 18.1499 4.36315 18.858 5.42286C19.5661 6.48257 19.944 7.72846 19.944 9.00296C19.9432 10.7115 19.264 12.3498 18.0556 13.5576C16.8472 14.7655 15.2086 15.444 13.5 15.444V15.447ZM13.5 4.70696C13.1164 4.71241 12.7353 4.76959 12.367 4.87696C12.6714 5.28934 12.8177 5.79722 12.7794 6.30831C12.7411 6.8194 12.5207 7.29979 12.1583 7.66219C11.7959 8.0246 11.3155 8.24498 10.8044 8.28329C10.2933 8.3216 9.78541 8.17529 9.37303 7.87096C9.13812 8.73617 9.18045 9.65326 9.49405 10.4932C9.80765 11.3331 10.3767 12.0535 11.1212 12.553C11.8657 13.0525 12.7481 13.306 13.6441 13.2778C14.5402 13.2496 15.4049 12.9411 16.1165 12.3958C16.8281 11.8504 17.3507 11.0956 17.6109 10.2377C17.871 9.3797 17.8556 8.46176 17.5667 7.61304C17.2779 6.76431 16.7302 6.02753 16.0006 5.5064C15.2711 4.98527 14.3966 4.70602 13.5 4.70796V4.70696Z" fill="#722ED1"/>
  </symbol>

  <symbol id="bar" width="41" height="40" viewBox="0 0 41 40" fill="none" xmlns="http://www.w3.org/2000/svg">
    <path d="M20.5 40C31.5457 40 40.5 31.0457 40.5 20C40.5 8.9543 31.5457 0 20.5 0C9.4543 0 0.5 8.9543 0.5 20C0.5 31.0457 9.4543 40 20.5 40Z" fill="#E6F7FF" />
    <path d="M22.124 20.541H18.876C18.8049 20.541 18.7346 20.555 18.6689 20.5822C18.6033 20.6094 18.5437 20.6492 18.4934 20.6995C18.4432 20.7497 18.4033 20.8093 18.3761 20.875C18.349 20.9406 18.335 21.011 18.335 21.082V28.118C18.335 28.1891 18.349 28.2594 18.3761 28.325C18.4033 28.3907 18.4432 28.4503 18.4934 28.5006C18.5437 28.5508 18.6033 28.5906 18.6689 28.6178C18.7346 28.645 18.8049 28.659 18.876 28.659H22.124C22.2674 28.659 22.405 28.602 22.5065 28.5006C22.608 28.3991 22.665 28.2615 22.665 28.118V21.082C22.665 20.9385 22.608 20.8009 22.5065 20.6995C22.405 20.598 22.2674 20.541 22.124 20.541Z" fill="#1890FF" />
    <path d="M15.629 23.789H12.381C12.2375 23.789 12.0999 23.846 11.9984 23.9475C11.897 24.0489 11.84 24.1865 11.84 24.33V28.119C11.84 28.2625 11.897 28.4001 11.9984 28.5015C12.0999 28.603 12.2375 28.66 12.381 28.66H15.629C15.7724 28.66 15.9101 28.603 16.0115 28.5015C16.113 28.4001 16.17 28.2625 16.17 28.119V24.33C16.17 24.1865 16.113 24.0489 16.0115 23.9475C15.9101 23.846 15.7724 23.789 15.629 23.789Z" fill="#1890FF" />
    <path d="M28.619 17.294H25.371C25.2999 17.294 25.2296 17.308 25.1639 17.3352C25.0983 17.3624 25.0386 17.4022 24.9884 17.4525C24.9382 17.5027 24.8983 17.5623 24.8711 17.628C24.8439 17.6936 24.83 17.764 24.83 17.835V28.119C24.83 28.1901 24.8439 28.2604 24.8711 28.326C24.8983 28.3917 24.9382 28.4513 24.9884 28.5016C25.0386 28.5518 25.0983 28.5916 25.1639 28.6188C25.2296 28.646 25.2999 28.66 25.371 28.66H28.619C28.7624 28.66 28.9 28.603 29.0015 28.5016C29.103 28.4001 29.16 28.2625 29.16 28.119V17.835C29.16 17.6915 29.103 17.5539 29.0015 17.4525C28.9 17.351 28.7624 17.294 28.619 17.294Z" fill="#1890FF" />
    <path d="M20.5 17.84C20.5711 17.8401 20.6416 17.826 20.7073 17.7988C20.7731 17.7715 20.8327 17.7315 20.883 17.681L25.372 13.188V15.67H26.455V11.881C26.455 11.8098 26.4409 11.7393 26.4136 11.6735C26.3863 11.6078 26.3462 11.548 26.2958 11.4978C26.2453 11.4475 26.1855 11.4077 26.1196 11.3806C26.0537 11.3536 25.9832 11.3398 25.912 11.34H22.124V12.423H24.606L20.5 16.529L18.177 14.205C18.0755 14.1036 17.9379 14.0466 17.7945 14.0466C17.651 14.0466 17.5134 14.1036 17.412 14.205L14.705 16.911L15.47 17.676L17.794 15.353L20.118 17.677C20.1677 17.7281 20.2271 17.7687 20.2927 17.7967C20.3582 17.8247 20.4287 17.8394 20.5 17.84Z" fill="#1890FF" />
  </symbol>

  <symbol id="dev" width="41" height="40" viewBox="0 0 41 40" fill="none" xmlns="http://www.w3.org/2000/svg">
    <path d="M20.5 40C31.5457 40 40.5 31.0457 40.5 20C40.5 8.9543 31.5457 0 20.5 0C9.4543 0 0.5 8.9543 0.5 20C0.5 31.0457 9.4543 40 20.5 40Z" fill="#FFF1F0" />
    <path d="M15.485 19.438V12.471H24.537V19.438L27.444 17.823L25.544 16.708V11.965C25.544 11.8324 25.4913 11.7052 25.3976 11.6115C25.3038 11.5177 25.1766 11.465 25.044 11.465H14.982C14.8494 11.465 14.7222 11.5177 14.6285 11.6115C14.5347 11.7052 14.482 11.8324 14.482 11.965V16.706L12.562 17.815L15.485 19.438Z" fill="#F5222D" />
    <path d="M20.255 22.9671C20.1804 23.0087 20.0964 23.0306 20.011 23.0306C19.9255 23.0306 19.8415 23.0087 19.767 22.9671L11.965 18.6331V27.0531C11.965 27.1857 12.0176 27.3128 12.1114 27.4066C12.2052 27.5004 12.3324 27.5531 12.465 27.5531H27.554C27.6866 27.5531 27.8138 27.5004 27.9075 27.4066C28.0013 27.3128 28.054 27.1857 28.054 27.0531V18.6331L20.255 22.9671Z" fill="#F5222D" />
    <path d="M18.5019 18.713L16.6379 16.849C16.5909 16.8025 16.5536 16.7472 16.5281 16.6862C16.5026 16.6251 16.4895 16.5597 16.4895 16.4935C16.4895 16.4274 16.5026 16.362 16.5281 16.3009C16.5536 16.2399 16.5909 16.1845 16.6379 16.138L18.5019 14.274L19.2129 14.985L17.7049 16.494L19.2139 18.003L18.5019 18.713Z" fill="#F5222D" />
    <path d="M21.5219 18.713L20.8109 18.002L22.3199 16.493L20.8079 14.988L21.5189 14.277L23.3829 16.138C23.4299 16.1845 23.4672 16.2399 23.4927 16.3009C23.5181 16.3619 23.5313 16.4274 23.5313 16.4935C23.5313 16.5597 23.5181 16.6251 23.4927 16.6862C23.4672 16.7472 23.4299 16.8025 23.3829 16.849L21.5219 18.713Z" fill="#F5222D" />
  </symbol>

  <symbol id="timeline" width="41" height="40" viewBox="0 0 41 40" fill="none" xmlns="http://www.w3.org/2000/svg">
    <path d="M20.5 40C31.5457 40 40.5 31.0457 40.5 20C40.5 8.9543 31.5457 0 20.5 0C9.4543 0 0.5 8.9543 0.5 20C0.5 31.0457 9.4543 40 20.5 40Z" fill="#F6FFED" />
    <path d="M21.0131 12H19.9861V19.7H18.4451V20.732H19.9861V28.432H21.0131V25.355H22.5541V24.328H21.0131V16.109H22.5541V15.082H21.0131V12Z" fill="#52C41A" />
    <path d="M27.5 13.219H24.5C23.9477 13.219 23.5 13.6667 23.5 14.219V17.219C23.5 17.7713 23.9477 18.219 24.5 18.219H27.5C28.0523 18.219 28.5 17.7713 28.5 17.219V14.219C28.5 13.6667 28.0523 13.219 27.5 13.219Z" fill="#52C41A" />
    <path d="M27.5 22.219H24.5C23.9477 22.219 23.5 22.6667 23.5 23.219V26.219C23.5 26.7713 23.9477 27.219 24.5 27.219H27.5C28.0523 27.219 28.5 26.7713 28.5 26.219V23.219C28.5 22.6667 28.0523 22.219 27.5 22.219Z" fill="#52C41A" />
    <path d="M16.5 17.219H13.5C12.9477 17.219 12.5 17.6667 12.5 18.219V22.219C12.5 22.7713 12.9477 23.219 13.5 23.219H16.5C17.0523 23.219 17.5 22.7713 17.5 22.219V18.219C17.5 17.6667 17.0523 17.219 16.5 17.219Z" fill="#52C41A" />
  </symbol>

  <symbol id="electronic" width="25" height="25" viewBox="0 0 25 25" fill="none" xmlns="http://www.w3.org/2000/svg">
    <path d="M8.50001 7.598V5.828C9.16722 5.5921 9.72956 5.12793 10.0876 4.51752C10.4457 3.90711 10.5765 3.18976 10.4568 2.49227C10.3371 1.79477 9.97473 1.16204 9.43367 0.705895C8.8926 0.249753 8.20769 -0.000427246 7.50001 -0.000427246C6.79232 -0.000427246 6.10741 0.249753 5.56635 0.705895C5.02528 1.16204 4.66288 1.79477 4.54321 2.49227C4.42354 3.18976 4.5543 3.90711 4.91237 4.51752C5.27045 5.12793 5.83279 5.5921 6.50001 5.828V8.012C6.50006 8.27719 6.60546 8.53151 6.79301 8.719L9.50001 11.426V23.012C9.50001 23.2772 9.60536 23.5316 9.7929 23.7191C9.98044 23.9066 10.2348 24.012 10.5 24.012C10.7652 24.012 11.0196 23.9066 11.2071 23.7191C11.3946 23.5316 11.5 23.2772 11.5 23.012V11.012C11.4999 10.7468 11.3946 10.4925 11.207 10.305L8.50001 7.598Z" fill="#722ED1"/>
    <path d="M4.50001 16.598V14.828C5.16722 14.5921 5.72956 14.1279 6.08764 13.5175C6.44571 12.9071 6.57647 12.1898 6.4568 11.4923C6.33713 10.7948 5.97474 10.162 5.43367 9.70589C4.8926 9.24975 4.20769 8.99957 3.50001 8.99957C2.79232 8.99957 2.10741 9.24975 1.56635 9.70589C1.02528 10.162 0.662882 10.7948 0.543211 11.4923C0.423539 12.1898 0.554298 12.9071 0.912375 13.5175C1.27045 14.1279 1.83279 14.5921 2.50001 14.828V17.012C2.50006 17.2772 2.60546 17.5315 2.79301 17.719L5.50001 20.426V23.012C5.50001 23.2772 5.60536 23.5316 5.7929 23.7191C5.98044 23.9066 6.23479 24.012 6.50001 24.012C6.76522 24.012 7.01958 23.9066 7.20711 23.7191C7.39465 23.5316 7.50001 23.2772 7.50001 23.012V20.012C7.49995 19.7468 7.39456 19.4925 7.20701 19.305L4.50001 16.598Z" fill="#722ED1"/>
    <path d="M18.5 8.012V5.828C19.1672 5.5921 19.7296 5.12793 20.0876 4.51752C20.4457 3.90711 20.5765 3.18976 20.4568 2.49227C20.3371 1.79477 19.9747 1.16204 19.4337 0.705895C18.8926 0.249753 18.2077 -0.000427246 17.5 -0.000427246C16.7923 -0.000427246 16.1074 0.249753 15.5663 0.705895C15.0253 1.16204 14.6629 1.79477 14.5432 2.49227C14.4235 3.18976 14.5543 3.90711 14.9124 4.51752C15.2704 5.12793 15.8328 5.5921 16.5 5.828V7.598L13.793 10.305C13.6055 10.4925 13.5001 10.7468 13.5 11.012V23.012C13.5 23.2772 13.6054 23.5316 13.7929 23.7191C13.9804 23.9066 14.2348 24.012 14.5 24.012C14.7652 24.012 15.0196 23.9066 15.2071 23.7191C15.3946 23.5316 15.5 23.2772 15.5 23.012V11.426L18.207 8.719C18.3946 8.53151 18.4999 8.27719 18.5 8.012Z" fill="#722ED1"/>
    <path d="M24.5 12.012C24.5023 11.4615 24.353 10.9209 24.0686 10.4496C23.7842 9.97824 23.3755 9.59424 22.8874 9.33965C22.3993 9.08506 21.8505 8.96968 21.3012 9.00617C20.7519 9.04265 20.2232 9.22959 19.7731 9.5465C19.3229 9.86341 18.9686 10.2981 18.749 10.8029C18.5294 11.3077 18.453 11.8633 18.528 12.4086C18.6031 12.954 18.8268 13.4682 19.1746 13.895C19.5224 14.3217 19.981 14.6445 20.5 14.828V16.598L17.793 19.305C17.6054 19.4925 17.5001 19.7468 17.5 20.012V23.012C17.5 23.2772 17.6054 23.5316 17.7929 23.7191C17.9804 23.9066 18.2348 24.012 18.5 24.012C18.7652 24.012 19.0196 23.9066 19.2071 23.7191C19.3946 23.5316 19.5 23.2772 19.5 23.012V20.426L22.207 17.719C22.3946 17.5315 22.4999 17.2772 22.5 17.012V14.828C23.0829 14.6219 23.5879 14.2408 23.9459 13.7367C24.3039 13.2326 24.4974 12.6303 24.5 12.012Z" fill="#722ED1"/>
  </symbol>

  <symbol id="compass" width="24" height="24" viewBox="0 0 24 24" fill="none" xmlns="http://www.w3.org/2000/svg">
    <path d="M12.387 2.4V0H10.842V2.4C9.90207 2.59181 9.06683 3.12581 8.49824 3.89845C7.92965 4.6711 7.6682 5.62734 7.7646 6.5818C7.86099 7.53626 8.30835 8.42092 9.01995 9.06427C9.73155 9.70762 10.6567 10.0638 11.616 10.0638C12.5753 10.0638 13.5005 9.70762 14.2121 9.06427C14.9237 8.42092 15.371 7.53626 15.4674 6.5818C15.5638 5.62734 15.3024 4.6711 14.7338 3.89845C14.1652 3.12581 13.3299 2.59181 12.39 2.4H12.387Z" fill="#722ED1"/>
    <path d="M19.8 17.032H21.681V15.484H19.021L15.974 9.397C15.3365 10.2632 14.4564 10.921 13.445 11.287L15.545 15.487H12.387V13.935H10.839V15.483H7.682L9.782 11.283C8.77053 10.9172 7.89037 10.2594 7.253 9.393L4.2 15.484H1.548V17.032H3.429L0 23.881C0.878326 24.1006 1.80527 24.014 2.62777 23.6357C3.45028 23.2573 4.11917 22.6098 4.524 21.8L6.908 17.033H10.839V18.581H12.387V17.032H16.318L18.7 21.8C19.1048 22.6098 19.7737 23.2573 20.5962 23.6357C21.4187 24.014 22.3457 24.1006 23.224 23.881L19.8 17.032Z" fill="#722ED1"/>
  </symbol>

  <symbol id="angular" width="512" height="139" viewBox="0 0 512 139" version="1.1" xmlns="http://www.w3.org/2000/svg" xmlns:xlink="http://www.w3.org/1999/xlink">
    <g stroke="none" stroke-width="1" fill="none" fill-rule="evenodd">
      <g>
        <g transform="translate(150.000000, 31.000000)" fill="#B52E31">
          <path d="M0.6,71.8 L0.6,8.8 L8.7,8.8 L47.2,59.5 L47.2,8.8 L54.9,8.8 L54.9,71.8 L46.8,71.8 L8.3,20.6 L8.3,71.8 L0.6,71.8 L0.6,71.8 Z"></path>
          <path d="M117.6,69.3 C112.5,71.2 107,72.2 101.2,72.2 C78.4,72.2 67,61.3 67,39.4 C67,18.7 78,8.3 100,8.3 C106.3,8.3 112.2,9.2 117.6,10.9 L117.6,17.9 C112.2,15.8 106.6,14.8 100.9,14.8 C83.7,14.8 75.1,23 75.1,39.2 C75.1,56.7 83.6,65.4 100.5,65.4 C103.2,65.4 106.2,65 109.5,64.3 L109.5,43.2 L117.6,43.2 L117.6,69.3 L117.6,69.3 Z"></path>
          <path d="M130.6,47.5 L130.6,8.8 L138.7,8.8 L138.7,47.5 C138.7,59.6 144.7,65.7 156.8,65.7 C168.8,65.7 174.9,59.6 174.9,47.5 L174.9,8.8 L183,8.8 L183,47.5 C183,64 174.3,72.3 156.8,72.3 C139.3,72.3 130.6,64 130.6,47.5 L130.6,47.5 L130.6,47.5 Z"></path>
          <path d="M205.6,8.8 L205.6,65.2 L238.6,65.2 L238.6,71.8 L197.5,71.8 L197.5,8.8 L205.6,8.8 L205.6,8.8 Z"></path>
          <path d="M250.3,71.8 L241.8,71.8 L273.1,0.5 L304.4,71.8 L295.4,71.8 L287.3,52 L266.5,52 L268.7,45.4 L284.6,45.4 L272.8,16.9 L250.3,71.8 L250.3,71.8 Z"></path>
          <path d="M313.1,71.8 L313.1,8.8 L340,8.8 C352,8.8 358,13.8 358,23.9 C358,32.1 352.1,38.2 340.4,42.1 L362,71.8 L351.3,71.8 L331.3,43.5 L331.3,38.2 C343.3,36.3 349.4,31.7 349.4,24.3 C349.4,18.5 346.1,15.6 339.4,15.6 L321.4,15.6 L321.4,71.8 L313.1,71.8 L313.1,71.8 Z"></path>
        </g>
        <g>
          <path d="M0,23 L64.5,0 L130.7,22.6 L120,107.9 L64.5,138.6 L9.9,108.3 L0,23 L0,23 Z" fill="#E23237"></path>
          <path d="M130.7,22.6 L64.5,0 L64.5,138.6 L120,107.9 L130.7,22.6 L130.7,22.6 Z" fill="#B52E31"></path>
          <path d="M64.6,16.2 L64.6,16.2 L24.4,105.6 L39.4,105.3 L47.5,85.1 L64.6,85.1 L83.4,85.1 L92.2,105.5 L106.5,105.8 L64.6,16.2 L64.6,16.2 Z M64.7,44.9 L78.3,73.3 L65.3,73.3 L64.6,73.3 L52.8,73.3 L64.7,44.9 L64.7,44.9 Z" fill="#FFFFFF"></path>
        </g>
      </g>
    </g>
  </symbol>

  <symbol id="kotlin" width="512" height="112" viewBox="0 0 512 112" version="1.1" xmlns="http://www.w3.org/2000/svg" xmlns:xlink="http://www.w3.org/1999/xlink" preserveAspectRatio="xMidYMid">
    <title>Kotlin</title>
    <defs>
        <linearGradient x1="99.9909179%" y1="0.0292854617%" x2="0.00995772309%" y2="99.9702373%" id="linearGradient-1">
            <stop stop-color="#E44857" offset="0.3435144%"></stop>
            <stop stop-color="#C711E1" offset="46.89%"></stop>
            <stop stop-color="#7F52FF" offset="100%"></stop>
        </linearGradient>
    </defs>
    <g>
        <polygon fill="url(#linearGradient-1)" points="105.092357 109.339787 0 109.339787 0 4.28948395 105.092357 4.28948395 52.5461784 56.7936085"></polygon>
        <path d="M269.144091,30.6361672 C276.398365,30.6361672 283.316209,32.6126941 289.24579,35.9139146 C295.175371,39.1941082 299.801285,44.1354255 303.060452,50.0860331 C306.361672,56.352044 308.338199,63.2698882 308.338199,70.8395658 C308.338199,78.4092433 306.698102,85.3270875 303.396882,91.5930984 C300.095661,97.5226791 295.490774,102.463996 289.561193,105.765217 C283.631613,109.402868 276.713768,111.042964 269.144091,111.042964 C261.574413,111.042964 254.656569,109.066437 248.726988,105.765217 C242.460977,102.463996 237.85609,97.5226791 234.55487,91.5930984 C231.253649,85.6635176 229.613552,78.4092433 229.613552,70.8395658 C229.613552,63.2698882 231.253649,56.352044 234.55487,50.0860331 C237.85609,44.1564524 242.797408,39.5515652 248.726988,35.9139146 C254.656569,32.276264 261.574413,30.6361672 269.144091,30.6361672 Z M232.26294,3.95305383 L184.489863,55.0063236 L232.914773,109.339787 L211.509407,109.339787 L165.712858,58.6019204 L165.712858,109.339787 L148.912379,109.339787 L148.912379,4.28948395 L165.712858,4.28948395 L165.712858,52.7143934 L211.172977,3.95305383 L232.26294,3.95305383 Z M268.849714,45.7334686 C264.244827,45.7334686 260.291773,46.721732 256.990553,49.034689 C253.689332,51.011216 251.060972,53.9760063 249.084445,57.9290602 C247.107918,61.5667108 246.119655,66.1715979 246.119655,71.1129152 C246.119655,76.0542325 246.771488,80.3437165 248.748015,84.2967703 C250.724542,87.913394 253.352902,90.8781844 256.654123,93.1911414 C260.270747,95.5040985 264.244827,96.4923619 268.513284,96.4923619 C272.781741,96.4923619 276.734795,95.5040985 280.036016,93.1911414 C283.337236,91.2146145 285.965596,88.2498241 287.942123,84.2967703 C289.91865,80.3437165 290.906914,76.0542325 290.906914,71.1129152 C290.906914,66.1715979 290.25508,61.882114 288.278553,57.9290602 C286.302027,54.3124364 283.673666,51.3476461 280.372446,49.034689 C277.092252,46.721732 273.139198,45.7334686 268.849714,45.7334686 Z M342.296614,13.1838551 L326.147968,13.1838551 L326.147968,26.3677101 C326.147968,28.3442371 325.811538,29.9843339 324.507871,30.9725973 C323.519608,31.9608608 321.879511,32.6126941 319.902984,32.6126941 L311.996876,32.6126941 L311.996876,46.4483825 L325.832565,46.4483825 L325.832565,87.9554478 C325.832565,92.2449317 326.820828,96.1979856 328.460925,99.4781792 C330.101022,102.7794 332.750409,105.40776 336.030603,107.047857 C339.331823,109.024384 342.948447,109.676217 347.553334,109.676217 L360.064329,109.676217 L360.064329,95.1886952 L350.833528,95.1886952 C348.520571,95.1886952 346.544044,94.5368619 344.903947,92.560335 C343.579253,90.9202382 342.59099,88.6072811 342.59099,85.9789209 L342.59099,46.4483825 L360.379732,46.4483825 L360.379732,32.6126941 L342.59099,32.6126941 L342.59099,13.1838551 L342.296614,13.1838551 Z M372.932781,0 L389.396829,0 L389.396829,109.339787 L372.932781,109.339787 L372.932781,0 Z M408.173835,0.336430113 L424.974314,0.336430113 L424.974314,17.473339 L408.173835,17.473339 L408.173835,0.336430113 Z M408.173835,32.6126941 L424.637884,32.6126941 L424.637884,109.65519 L408.173835,109.65519 L408.173835,32.6126941 Z M508.661305,45.123689 C506.348348,40.5188018 503.068154,36.8811512 498.77867,34.589221 C494.489186,31.9608608 489.547869,30.6361672 483.954718,30.6361672 C478.025138,30.6361672 472.74739,32.276264 468.142503,34.9256512 C464.525879,37.2386082 461.561089,40.5188018 459.248132,44.1564524 L459.248132,32.2972909 L443.435916,32.2972909 L443.435916,109.339787 L459.899965,109.339787 L459.899965,66.1715979 C459.899965,61.882114 460.551798,58.2654903 462.212922,54.9642698 C463.853019,51.6630493 466.165976,49.3711192 468.794336,47.3945922 C471.759127,45.7544954 475.060347,44.766232 479.013401,44.766232 C482.630025,44.766232 485.279412,45.4180653 487.907772,47.079189 C490.536132,48.7403127 492.197256,50.6958127 493.500923,53.3451999 C494.825616,55.9735601 495.47745,59.2747806 495.47745,62.8914043 L495.47745,109.003357 L511.941498,109.003357 L511.941498,60.9148774 C512.298955,55.0063236 510.995289,49.749603 508.661305,45.123689 Z" fill="#000000"></path>
    </g>
</symbol>

  <symbol id="nvidia" width="512px" height="98px" viewBox="0 0 512 98" version="1.1" xmlns="http://www.w3.org/2000/svg" preserveAspectRatio="xMidYMid">
    <g>
      <path d="M312.804734,18.3939138 L312.804734,82.2316145 L330.819949,82.2316145 L330.819949,18.3939138 L312.804734,18.3939138 Z M171.063398,18.2857143 L171.063398,82.1775148 L189.240913,82.1775148 L189.240913,32.5680473 L203.415046,32.6221471 C208.067625,32.6221471 211.313609,33.7582418 213.531699,36.1386306 C216.398986,39.1682164 217.53508,44.0912933 217.53508,53.0177515 L217.53508,82.1775148 L235.171598,82.1775148 L235.171598,46.9044801 C235.171598,21.6939983 219.103973,18.2857143 203.415046,18.2857143 L171.063398,18.2857143 L171.063398,18.2857143 Z M341.856298,18.3939138 L341.856298,82.2316145 L371.070161,82.2316145 C386.650888,82.2316145 391.736264,79.6348267 397.200338,73.8461538 C401.09552,69.7886729 403.584108,60.808115 403.584108,51.0160609 C403.584108,42.035503 401.474218,34.0287405 397.741336,29.0515638 C391.141167,20.1251057 381.511412,18.3939138 367.120879,18.3939138 L341.856298,18.3939138 L341.856298,18.3939138 Z M359.709214,32.2434489 L367.445478,32.2434489 C378.698225,32.2434489 385.947591,37.2747253 385.947591,50.3668639 C385.947591,63.4590025 378.698225,68.5443787 367.445478,68.5443787 L359.709214,68.5443787 L359.709214,32.2434489 Z M286.836855,18.3939138 L271.797126,68.9771767 L257.406593,18.3939138 L237.930685,18.3939138 L258.488588,82.2316145 L284.456467,82.2316145 L305.230769,18.3939138 L286.836855,18.3939138 L286.836855,18.3939138 Z M412.023669,82.2316145 L430.038884,82.2316145 L430.038884,18.3939138 L412.023669,18.3939138 L412.023669,82.2316145 Z M462.552832,18.3939138 L437.39645,82.1775148 L455.141167,82.1775148 L459.144548,70.8706678 L488.899408,70.8706678 L492.686391,82.123415 L512,82.123415 L486.627219,18.3939138 L462.552832,18.3939138 L462.552832,18.3939138 Z M474.238377,30.0253593 L485.166526,59.8884193 L462.98563,59.8884193 L474.238377,30.0253593 Z" fill="#000000"></path>
      <path d="M54.8030431,28.9974641 L54.8030431,20.2333052 C55.6686391,20.1792054 56.534235,20.1251057 57.3998309,20.1251057 C81.4201183,19.3677092 97.1631445,40.7912088 97.1631445,40.7912088 C97.1631445,40.7912088 80.1758242,64.3786982 61.9442096,64.3786982 C59.509721,64.3786982 57.1293322,64 54.8571429,63.2426036 L54.8571429,36.6255283 C64.216399,37.761623 66.1098901,41.8732037 71.682164,51.2324598 L84.1792054,40.737109 C84.1792054,40.737109 75.0363483,28.7810651 59.6720203,28.7810651 C58.0490279,28.7269653 56.4260355,28.8351648 54.8030431,28.9974641 M54.8030431,0 L54.8030431,13.0921386 L57.3998309,12.9298394 C90.7793745,11.7937447 112.581572,40.3043111 112.581572,40.3043111 C112.581572,40.3043111 87.5874894,70.7083686 61.5655114,70.7083686 C59.2933221,70.7083686 57.0752325,70.4919696 54.8571429,70.1132713 L54.8571429,78.2282333 C56.6965342,78.4446323 58.5900254,78.6069315 60.4294167,78.6069315 C84.6661031,78.6069315 102.194421,66.2180896 119.181741,51.6111581 C121.994928,53.8833474 133.518174,59.3474218 135.898563,61.7278107 C119.776839,75.2527473 82.1775148,86.1267963 60.8622147,86.1267963 C58.8064243,86.1267963 56.8588335,86.0185968 54.9112426,85.8021978 L54.9112426,97.2172443 L146.989011,97.2172443 L146.989011,0 L54.8030431,0 L54.8030431,0 Z M54.8030431,63.2426036 L54.8030431,70.1673711 C32.4057481,66.1639899 26.1842773,42.8469992 26.1842773,42.8469992 C26.1842773,42.8469992 36.9501268,30.9450549 54.8030431,28.9974641 L54.8030431,36.5714286 L54.7489434,36.5714286 C45.3896872,35.4353339 38.0321217,44.1994928 38.0321217,44.1994928 C38.0321217,44.1994928 42.1978022,58.9687236 54.8030431,63.2426036 M15.0397295,41.8732037 C15.0397295,41.8732037 28.2941674,22.2890955 54.8571429,20.2333052 L54.8571429,13.0921386 C25.4268808,15.4725275 0,40.3584108 0,40.3584108 C0,40.3584108 14.3905325,82.0152156 54.8030431,85.8021978 L54.8030431,78.2282333 C25.1563821,74.5494505 15.0397295,41.8732037 15.0397295,41.8732037 Z" fill="#76B900"></path>
    </g>
  </symbol>

  <symbol id="nuxt" width="512px" height="95px" viewBox="0 0 512 95" version="1.1" xmlns="http://www.w3.org/2000/svg" xmlns:xlink="http://www.w3.org/1999/xlink" preserveAspectRatio="xMidYMid">
    <g>
      <path d="M483.174437,19.0146984 C499.040549,19.0146984 509.757382,27.9483071 510.411971,41.7211508 L496.866461,41.7211508 C496.228414,35.3099561 491.10513,30.9998278 483.148442,30.9998278 C475.751819,30.9998278 471.143699,34.3647007 471.143699,39.5123252 C471.143699,44.1594913 474.466566,46.4902987 479.217035,48.1134478 L480.256153,48.4510202 L480.256153,48.4510202 L481.334829,48.7704472 L481.334829,48.7704472 L482.448919,49.0752463 L482.448919,49.0752463 L484.177389,49.5127124 L484.177389,49.5127124 L485.962229,49.9370521 L485.962229,49.9370521 L489.024242,50.6473595 L489.024242,50.6473595 L490.845553,51.0835541 L490.845553,51.0835541 L492.496119,51.5020589 L492.496119,51.5020589 L493.594105,51.7980851 L493.594105,51.7980851 L494.686866,52.1105423 C494.868399,52.1641216 495.049597,52.2184861 495.230399,52.2736858 L496.309995,52.6153095 L496.309995,52.6153095 L497.377265,52.9793908 C497.553959,53.0420765 497.73002,53.1057983 497.90539,53.1706065 L498.948846,53.5728947 C506.188354,56.4857949 512,61.4923102 512,72.3133963 C512,85.9782445 500.526963,94.2851489 484.022804,94.2851489 C466.979849,94.2851489 455.832925,84.1905303 455.08381,68.7377314 L455.067268,68.7275699 L468.686035,68.7275699 C469.439876,76.9470382 475.01452,82.1818626 484.018077,82.1818626 C492.057474,82.1818626 497.636844,79.0327442 497.636844,72.5137904 C497.636844,67.5333641 493.614848,65.2158637 488.111064,63.4889141 L486.991302,63.1507842 L486.991302,63.1507842 L485.836543,62.8247181 L485.836543,62.8247181 L483.440091,62.1940403 L483.440091,62.1940403 L479.061572,61.0823561 L479.061572,61.0823561 L477.789398,60.7449017 L477.789398,60.7449017 L476.516096,60.3918795 L476.516096,60.3918795 L475.24618,60.0196053 C474.823941,59.8918958 474.403019,59.7603636 473.984167,59.6243947 L472.734572,59.2025635 C464.455375,56.2934337 457.30516,51.3639871 457.30516,39.5019274 C457.314612,27.4142378 467.927467,19.0146984 483.174437,19.0146984 Z M260.621144,40.4481281 L260.621144,70.5162295 C260.621144,77.769883 265.125286,82.8147111 271.876773,82.8147111 C279.273396,82.8147111 284.417949,77.1379798 284.417949,69.3601821 L284.417949,40.4481281 L297.601898,40.4481281 L297.601898,93.4332375 L284.417949,93.4332375 L284.417949,85.2137692 C281.416763,90.9982596 275.30805,94.2551371 267.592403,94.2551371 C255.372614,94.2551371 247.437195,85.6348805 247.437195,73.2286398 L247.437195,40.4481281 L260.621144,40.4481281 Z M187.733683,19.847941 L220.214076,71.7800359 L220.214076,19.847941 L234.361949,19.847941 L234.361949,93.4332375 L219.140266,93.4332375 L186.555185,41.609138 L186.555185,93.4332375 L172.407548,93.4332375 L172.407548,19.847941 L187.733683,19.847941 Z M446.593053,19.847941 L446.593053,72.4067402 C446.593053,86.6006952 439.626521,93.4332375 427.836823,93.4332375 L411.372837,93.4332375 L411.372837,80.9343618 L428.20311,80.9343618 C429.327963,80.9343618 430.410281,80.4955269 431.206659,79.7142734 C432.003036,78.9327835 432.449669,77.8731522 432.449669,76.7681486 L432.449669,19.847941 L446.593053,19.847941 Z M384.20856,24.4702399 L384.20856,40.4469465 L399.216853,40.4469465 L399.216853,51.2762649 L384.20856,51.2762649 L384.20856,77.5787051 C384.20856,78.4620463 384.565394,79.3094677 385.203442,79.9345179 C385.839126,80.559568 386.701672,80.9114393 387.60439,80.9128572 L399.216853,80.9128572 L399.216853,93.4117329 L390.532319,93.4117329 C378.740258,93.4117329 371.024611,86.6819872 371.024611,74.9178112 L371.024611,51.2866627 L360.414119,51.2866627 L360.414119,40.4469465 L367.07108,40.4469465 C370.176244,40.4469465 371.984045,38.6337104 371.984045,35.6334697 L371.984045,24.4702399 L384.20856,24.4702399 Z M320.002088,39.6103955 L330.829988,54.8576013 L341.544458,39.6103955 L356.018682,39.6103955 L337.900499,64.947021 L357.41057,92.5955049 L343.477506,92.5955049 L330.829988,74.9338805 L318.180108,92.5955049 L304.135976,92.5955049 L323.648411,64.947021 L305.638932,39.6103955 L320.002088,39.6103955 Z" fill="#000000"></path>
      <g>
        <path d="M62.3285402,5.10313847 C58.3712285,-1.70104616 48.4781856,-1.70104616 44.5208739,5.10313847 L1.39276957,79.258424 C-2.56449487,86.0628449 2.38207386,94.5680166 10.2966264,94.5680166 L43.9648274,94.5680166 C40.58294,91.6124393 39.3304766,86.4993166 41.8897555,82.1123863 L74.5530556,26.12231 L62.3285402,5.10313847 Z" fill="#80EEC0"></path>
        <path d="M89.655401,21.3693296 C92.9304746,15.8022479 101.117804,15.8022479 104.392878,21.3693296 L140.085012,82.0417285 C143.360086,87.6088101 139.266421,94.5677803 132.716274,94.5677803 L61.3320047,94.5677803 C54.7820938,94.5677803 50.6881927,87.6088101 53.9632663,82.0417285 L89.655401,21.3693296 Z" fill="#00DC82"></path>
      </g>
		</g>
  </symbol>

  <symbol id="stackbit" width="512px" height="87px" viewBox="0 0 512 87" version="1.1" xmlns="http://www.w3.org/2000/svg" preserveAspectRatio="xMidYMid">
    <g>
      <path d="M149.387613,6.67283976 C163.638013,6.67283976 173.574012,13.4933595 177.456012,22.8297592 L166.286813,34.0187588 C166.286813,25.1737191 159.820013,18.8937593 149.387613,18.8937593 C140.936013,18.8937593 134.886814,22.7511592 134.886814,29.1146789 C134.886814,34.9076953 139.752577,37.2546158 146.286602,38.8972805 L148.026872,39.3116289 L148.026872,39.3116289 L149.830213,39.7048431 L149.830213,39.7048431 L156.456481,41.0708282 L156.456481,41.0708282 L158.387544,41.5027963 L158.387544,41.5027963 L160.3123,41.9731227 C170.538419,44.6030486 179.957212,49.3311113 179.957212,63.5415977 C179.957212,78.4599971 166.915613,86.9119968 150.223213,86.9119968 C136.233214,86.9119968 124.587214,80.7451971 120.214014,69.3547975 L132.071214,57.4923979 C132.071214,68.0279975 138.950814,74.6911973 150.223213,74.6911973 C159.068013,74.6911973 165.662813,70.6223974 165.662813,64.0523977 C165.662813,57.8463457 160.210061,55.5283481 153.097777,53.8624437 L151.287327,53.4576802 L151.287327,53.4576802 L144.596374,52.0927566 L144.596374,52.0927566 L141.658853,51.4481618 L141.658853,51.4481618 L139.710109,50.9704661 C129.6898,48.3790539 120.592414,43.7262454 120.592414,30.0384789 C120.592414,15.9551994 133.530414,6.67283976 149.387613,6.67283976 Z M201.077611,10.4423996 L201.077611,31.0807989 L216.310811,31.0807989 L216.310811,42.5843985 L201.077611,42.5843985 L201.077611,66.7899976 C201.077611,72.9423996 203.269211,74.5099973 208.488011,74.5099973 C210.906411,74.4319973 213.314411,74.1523973 215.686811,73.6743973 L215.686811,85.4679969 C214.435344,85.9527969 211.607166,86.3481746 209.335137,86.5578931 L207.768718,86.6788672 C207.303556,86.7065857 206.906478,86.7211968 206.610811,86.7211968 C194.193212,86.7211968 187.515212,81.502397 187.515212,68.6723975 L187.515212,42.5843985 L177.687612,42.5843985 L177.687612,31.1004789 L187.515212,31.1004789 L187.515212,24.0145991 L201.077611,10.4423996 Z M496.768001,10.4423996 L496.768001,31.0807989 L512,31.0807989 L512,42.5843985 L496.768001,42.5843985 L496.768001,66.7899976 C496.768001,72.9423996 498.96,74.5099973 504.176,74.5099973 C506.596,74.4319973 509.004,74.1523973 511.376001,73.6743973 L511.376001,85.4679969 C510.125333,85.9527969 507.296,86.3481746 505.023704,86.5578931 L503.457297,86.6788672 C502.992223,86.7065857 502.595334,86.7211968 502.3,86.7211968 C489.884001,86.7211968 483.204001,81.502397 483.204001,68.6723975 L483.204001,42.5843985 L473.376001,42.5843985 L473.376001,31.1004789 L483.204001,31.1004789 L483.204001,24.0145991 L496.768001,10.4423996 Z M334.514406,44.5495984 L322.514807,51.5371981 C321.266807,45.3799983 315.635207,41.5227985 308.957207,41.5227985 C300.112408,41.5227985 293.827608,47.5715983 293.827608,58.0039979 C293.827608,68.4363975 299.984408,74.5243973 308.957207,74.5243973 C315.424007,74.5243973 320.952407,70.2443974 322.514807,64.8195976 L334.200006,71.6007974 C330.549207,80.2591971 321.055207,86.9371968 308.957207,86.9371968 C291.532408,86.9371968 279.744008,75.1435973 279.744008,58.0383979 C279.744008,41.0363985 291.950408,29.1395843 308.957207,29.1395843 C320.952007,29.1151589 330.966807,35.7931587 334.514406,44.5495984 Z M351.506806,8.67771968 L351.506806,51.0355981 L371.850405,31.1097589 L390.002404,31.1097589 L366.631605,53.747998 L390.523204,85.3347969 L373.938805,85.3347969 L357.138006,62.9027977 L351.506806,68.3079975 L351.506806,85.3347969 L337.944406,85.3347969 L337.944406,8.67771968 L351.506806,8.67771968 Z M406.752004,8.67771968 L406.752004,36.8344387 C410.924004,32.1416388 416.872003,29.1146789 424.804003,29.1146789 C440.868003,29.1146789 452.132002,41.6351985 452.132002,58.2247979 C452.132002,74.6027973 440.868003,86.9119968 424.700003,86.9119968 C416.768003,86.9119968 410.824004,83.8851969 406.652004,79.1923971 L406.652004,85.3347969 L393.191604,85.3347969 L393.191604,8.67771968 L406.752004,8.67771968 Z M422.092003,74.6123973 C431.268003,74.6123973 438.052003,68.0375975 438.052003,58.2343979 C438.052003,48.2199982 431.268003,41.4387985 422.092003,41.4387985 C413.432004,41.4387985 406.336004,48.0087983 406.336004,58.2343979 C406.336004,68.2391975 413.456004,74.6027973 422.092003,74.6027973 L422.092003,74.6123973 Z M455.780002,8.67771968 L469.864002,8.67771968 L469.864002,22.2401192 L455.780002,22.2401192 L455.780002,8.67771968 Z M469.540002,31.1097589 L469.540002,85.3347969 L455.976002,85.3347969 L455.976002,31.0999189 L469.540002,31.1097589 Z M275.999209,30.9374789 L276.004409,85.3343969 L262.928409,85.3343969 L263.134809,78.5335971 C258.953209,83.555597 252.781209,86.8871968 244.51601,86.8871968 C228.30001,86.8871968 216.998011,74.5435973 216.998011,58.1211979 C216.998011,41.4875985 228.19201,28.9325989 244.40801,28.9325989 C252.270009,28.9325989 258.216009,31.9645188 262.397609,36.5688387 L262.397609,30.9374789 L275.999209,30.9374789 Z M247.01241,74.5483973 C255.695209,74.5483973 262.913609,68.1603975 262.913609,58.1259979 C262.913609,47.8707983 255.695209,41.2811985 247.01241,41.2811985 C237.91161,41.2811985 231.11081,48.0819983 231.11081,58.1259979 C231.15001,67.9735975 237.92641,74.5631973 247.02681,74.5631973 L247.01241,74.5483973 Z" fill="#000022"></path>
      <path d="M60.0968164,26.707039 L80.9024157,37.2080386 C82.6728156,38.0947586 84.1620156,39.4563186 85.2036155,41.1407985 C86.0960726,42.584227 86.6294114,44.2163249 86.7645881,45.9003132 L86.7988155,46.7459983 L86.7988155,70.7847974 C86.7988155,75.0339973 85.1112155,79.1087971 82.1072156,82.113997 C79.3177872,84.9041683 75.6054118,86.5596254 71.687157,86.7831648 L70.779616,86.8091968 L0.0537294173,86.8091968 L26.7313376,60.0971978 L60.0968164,60.0971978 L60.0968164,26.707039 Z M86.7500155,2.27373667e-13 L60.0972164,26.707119 L26.7316976,26.707119 L26.7316976,60.0971978 L5.87213841,49.6255982 C4.10609847,48.7343982 2.62206652,47.3703983 1.58531456,45.6851983 C0.696670022,44.2410841 0.166708899,42.6100638 0.0334270379,40.9276568 L-9.23705556e-14,40.0827985 L-9.23705556e-14,16.0488394 C-0.00319223664,13.9424395 0.408906604,11.8560396 1.21275458,9.90907964 C2.01660255,7.96207971 3.1964225,6.19267977 4.68473845,4.70207983 C6.17305839,3.21147988 7.94065833,2.02894793 9.88641826,1.22211996 C11.5078849,0.54975998 13.2265459,0.14930555 14.9733736,0.0344974062 L16.024298,2.27373667e-13 L86.7500155,2.27373667e-13 Z" fill="#FF364E"></path>
    </g>
  </symbol>



</svg>